# xmcd CD database file generated by OrangeCD 5.2
#
# Track frame offsets:
#	182
#	12615
#	22747
#	38927
#	57070
#	74960
#	95177
#	121597
#	139590
#	156392
#
# Disc length: 2312 seconds
#
# Revision: 19
# Processed by: cddbd v1.5.1PL2 Copyright (c) Steve Scherf et al.
# Submitted via: OrangeCD 5.2
#
DISCID=8909060a
DTITLE=Various Artist - huH - CD 8
DYEAR=1995
DGENRE=Rock
TTITLE0=Wilco - Casino Queen
TTITLE1=Vigilantes Of Love - Tempest
TTITLE2=Elvis Costello - Pouring Water On A Drowning Man
TTITLE3=Buffalo Tom - Summer
TTITLE4=Green Apple Quickstep - Las Vegas
TTITLE5=Goo Goo Dolls - Flat Top
TTITLE6=Bodeans - Naked
TTITLE7=Sweet Water - Superstar
TTITLE8=Sincola - Bitch
TTITLE9=Jennifer Trynin - Better Than Nothing
EXTD=
EXTT0=
EXTT1=
EXTT2=
EXTT3=
EXTT4=
EXTT5=
EXTT6=
EXTT7=
EXTT8=
EXTT9=
PLAYORDER=
